HIERARCHY
ROOT Hips
{
	OFFSET -3.958830 18.904000 13.208200
	CHANNELS 6 Xposition Yposition Zposition Zrotation Yrotation Xrotation 
	JOINT LHipJoint
	{
		OFFSET 0.000000 0.000000 0.000000
		CHANNELS 3 Zrotation Yrotation Xrotation
		JOINT LeftUpLeg
		{
			OFFSET 1.800000 -1.400000 0.085000
			CHANNELS 3 Zrotation Yrotation Xrotation
			JOINT LeftLeg
			{
				OFFSET 2.215000 -6.000000 0.000000
				CHANNELS 3 Zrotation Yrotation Xrotation
				JOINT LeftFoot
				{
					OFFSET 2.500000 -6.900000 0.000000
					CHANNELS 3 Zrotation Yrotation Xrotation
					JOINT LeftToeBase
					{
						OFFSET 0.200000 -0.500000 1.950000
						CHANNELS 3 Zrotation Yrotation Xrotation
						End Site
						{
							OFFSET 0.000000 0.000000 0.000000
						}
					}
				}
			}
		}
	}
	JOINT RHipJoint
	{
		OFFSET 0.000000 0.000000 0.000000
		CHANNELS 3 Zrotation Yrotation Xrotation
		JOINT RightUpLeg
		{
			OFFSET -1.800000 -1.400000 0.085000
			CHANNELS 3 Zrotation Yrotation Xrotation
			JOINT RightLeg
			{
				OFFSET -2.215000 -6.000000 0.000000
				CHANNELS 3 Zrotation Yrotation Xrotation
				JOINT RightFoot
				{
					OFFSET -2.500000 -6.900000 0.000000
					CHANNELS 3 Zrotation Yrotation Xrotation
					JOINT RightToeBase
					{
						OFFSET -0.200000 -0.500000 1.950000
						CHANNELS 3 Zrotation Yrotation Xrotation
						End Site
						{
							OFFSET 0.000000 0.000000 0.000000
						}
					}
				}
			}
		}
	}
	JOINT LowerBack
	{
		OFFSET 0.000000 0.000000 0.000000
		CHANNELS 3 Zrotation Yrotation Xrotation
		JOINT Spine
		{
			OFFSET -0.087000 1.940000 -0.288900
			CHANNELS 3 Zrotation Yrotation Xrotation
			JOINT Spine1
			{
				OFFSET 0.000000 1.950000 0.060000
				CHANNELS 3 Zrotation Yrotation Xrotation
				JOINT Neck
				{
					OFFSET 0.000000 0.000000 0.000000
					CHANNELS 3 Zrotation Yrotation Xrotation
					JOINT Neck1
					{
						OFFSET 0.000000 1.600000 0.340000
						CHANNELS 3 Zrotation Yrotation Xrotation
						JOINT Head
						{
							OFFSET 0.000000 1.667000 -0.240000
							CHANNELS 3 Zrotation Yrotation Xrotation
							End Site
							{
								OFFSET 0.000000 0.000000 0.000000
							}
						}
					}
				}
				JOINT LeftShoulder
				{
					OFFSET 0.000000 0.000000 0.000000
					CHANNELS 3 Zrotation Yrotation Xrotation
					JOINT LeftArm
					{
						OFFSET 2.700000 1.550000 -0.730000
						CHANNELS 3 Zrotation Yrotation Xrotation
						JOINT LeftForeArm
						{
							OFFSET 5.450000 0.000000 0.000000
							CHANNELS 3 Zrotation Yrotation Xrotation
							JOINT LeftHand
							{
								OFFSET 3.450000 0.000000 0.000000
								CHANNELS 3 Zrotation Yrotation Xrotation
								JOINT LeftHandIndex1
								{
									OFFSET 0.750000 0.000000 0.000000
									CHANNELS 3 Zrotation Yrotation Xrotation
									End Site
									{
										OFFSET 0.000000 0.000000 0.000000
									}
								}
							}
						}
					}
				}
				JOINT RightShoulder
				{
					OFFSET 0.000000 0.000000 0.000000
					CHANNELS 3 Zrotation Yrotation Xrotation
					JOINT RightArm
					{
						OFFSET -2.700000 1.550000 -0.730000
						CHANNELS 3 Zrotation Yrotation Xrotation
						JOINT RightForeArm
						{
							OFFSET -5.450000 0.000000 0.000000
							CHANNELS 3 Zrotation Yrotation Xrotation
							JOINT RightHand
							{
								OFFSET -3.450000 0.000000 0.000000
								CHANNELS 3 Zrotation Yrotation Xrotation
								JOINT RightHandIndex1
								{
									OFFSET -0.750000 0.000000 0.000000
									CHANNELS 3 Zrotation Yrotation Xrotation
									End Site
									{
										OFFSET 0.000000 0.000000 0.000000
									}
								}
							}
						}
					}
				}
			}
		}
	}
}
MOTION
Frames: 12
Frame Time: 0.016667
-0.577220 17.071150 -2.317170 4.097362 -6.543908 -20.309360 -14.224617 13.280416 2.539745 6.268487 -2.219852 0.745454 -2.684389 6.148173 25.351398 1.930700 4.014560 3.894187 3.428100 2.627120 3.552740 18.861956 -12.532103 2.627583 -27.011670 -2.496609 5.939788 -0.557539 -5.467240 10.960263 -2.027340 -5.538455 2.498022 0.662690 -1.515270 1.412970 -5.624239 0.614157 -7.545614 8.879409 5.463470 24.697840 6.492878 4.646675 31.888091 -17.058552 6.358656 -18.208991 7.452236 6.983800 35.511345 -4.666270 18.998230 -23.391130 6.677599 -49.538219 7.870838 44.815907 -4.164442 -22.508877 26.417291 5.830156 -1.693420 -3.824408 3.795333 0.384960 -0.296920 1.397450 0.685820 22.567606 38.717812 20.657519 47.029029 6.084188 -7.641329 -14.560850 13.778940 -4.466940 2.798801 -3.875368 1.763340 -1.711770 -2.994770 -0.253610 
-0.556260 17.075820 -2.313430 3.761922 -6.191711 -20.142494 -14.351397 13.432365 2.532125 6.939733 -1.799604 1.131938 -2.822335 6.011795 23.316669 1.868069 3.880436 3.941159 3.397760 2.570490 3.553210 18.747225 -12.360331 2.589817 -26.666877 -2.432478 6.357411 -0.332198 -5.481771 10.902195 -2.012498 -5.496733 2.513771 0.640530 -1.528550 1.391730 -5.283859 -0.016591 -7.557885 8.498894 5.061046 24.049946 6.782299 4.146693 32.225632 -15.852704 4.789599 -18.505088 4.341797 7.210303 37.175852 -5.751200 18.826620 -23.554540 5.932668 -49.930531 7.933299 44.159860 -8.440827 -23.602887 36.149417 19.810314 0.947666 -4.658558 3.655495 0.434390 -0.320350 1.400350 0.668490 21.108198 40.172971 21.090685 47.551000 5.016429 -7.907903 -13.853876 14.880718 -4.446936 2.779268 -3.814519 1.725320 -1.693640 -2.977670 -0.279450 
-0.538840 17.080860 -2.316330 3.640892 -7.124066 -21.102828 -14.347536 13.479718 2.688459 7.991603 -1.077629 3.765970 -3.884807 6.053847 19.120369 1.993535 3.658424 4.028949 3.320380 2.434730 3.597650 18.686285 -12.424186 2.663251 -26.480092 -2.429899 6.918444 -0.966498 -5.415433 10.853269 -2.051154 -5.371576 2.549794 0.483840 -1.637910 1.344980 -5.157249 0.019352 -7.821939 8.368434 3.046633 27.277518 4.409587 4.544392 30.212856 -13.823085 2.377847 -22.027139 1.104532 9.664112 42.016581 -6.654060 21.584500 -24.584730 3.052567 -51.435405 12.629689 44.862460 -7.305799 -20.990715 61.287463 41.150369 12.426892 -5.642728 3.836471 0.538550 -0.445830 1.458170 0.600620 21.654384 43.539283 21.782458 47.178627 4.079200 -7.953429 -11.746418 15.452804 -3.815854 2.851391 -3.709835 1.723490 -1.754550 -2.989260 -0.322890 
-0.526380 17.090030 -2.297900 3.873512 -7.672528 -21.254510 -14.434281 13.229488 3.068890 8.839407 -0.114185 8.525886 -5.847063 5.479822 8.983807 2.091104 3.531419 4.094131 3.288590 2.354760 3.626290 18.643279 -12.197794 2.630809 -26.325868 -2.241164 7.728127 -1.316258 -5.324749 9.867994 -2.098416 -5.313020 2.572743 0.402610 -1.717640 1.340040 -4.984522 -0.051450 -8.064512 7.771299 3.053228 27.850251 4.869313 5.410202 29.627647 -13.083832 1.516533 -23.092285 -0.400665 9.855011 45.626710 -7.976900 21.849120 -27.063230 4.232234 -49.438353 15.528943 44.033631 -7.838490 -16.664878 84.680231 56.023010 24.539106 -5.416743 4.332222 0.642880 -0.524100 1.510590 0.558640 19.815266 43.464036 21.038009 48.201124 3.791464 -8.514082 -10.882069 16.143983 -3.617720 2.864520 -3.607894 1.717100 -1.777980 -2.978230 -0.368970 
-0.496430 17.107230 -2.274170 3.462108 -7.686031 -21.591214 -14.364316 12.903760 3.316151 9.466085 0.046761 11.510229 -6.704317 5.107522 3.727650 2.271266 3.615057 4.040441 3.268360 2.304290 3.668160 18.733909 -12.144232 2.716445 -26.335412 -2.284750 8.947581 -0.937006 -5.450133 8.605351 -2.186323 -5.382668 2.528269 0.311770 -1.833140 1.354390 -5.220264 0.314754 -8.248778 9.514106 1.702614 28.820344 2.610635 5.300826 27.110457 -12.289010 1.378842 -24.388785 -0.636956 9.973477 50.475280 -9.366340 22.905800 -27.529620 1.788732 -50.365599 15.790894 43.136107 -7.866512 -17.973541 99.017502 50.234498 29.991647 -3.859129 4.821658 0.698140 -0.605860 1.579290 0.503850 21.176442 43.821749 21.375779 49.636783 1.773367 -10.098872 -10.651174 18.491660 -4.004580 2.879606 -3.553105 1.767490 -1.863280 -2.984930 -0.395410 
-0.471620 17.117560 -2.256730 2.849416 -7.350034 -21.361445 -14.297723 12.713118 3.506341 10.255027 -0.086962 12.624118 -7.652569 4.870295 0.607760 2.322753 3.739598 3.986680 3.229980 2.251200 3.648840 18.792434 -12.203335 2.725413 -25.699613 -2.390911 9.198113 -1.296683 -5.455489 8.446861 -2.225411 -5.324065 2.562744 0.258650 -1.862480 1.349170 -5.390440 0.637970 -8.372128 11.186566 0.386966 29.284170 0.143257 4.902837 23.844203 -11.558137 0.757908 -26.208828 -2.098825 10.637193 55.566864 -8.143140 23.320550 -27.689100 -1.829120 -51.462822 15.029509 41.070515 -9.559463 -19.410492 104.349887 39.927044 29.627420 -3.299007 4.664637 0.783590 -0.646020 1.619130 0.482580 23.979450 44.065176 21.961227 50.641971 -0.675364 -10.832774 -9.869146 19.607924 -3.984779 2.840371 -3.434511 1.753310 -1.855390 -2.955100 -0.423630 
-0.448960 17.133160 -2.238630 1.760313 -6.561764 -21.237384 -14.162193 12.361191 3.536037 11.522376 -0.332933 13.248120 -8.979587 4.810282 -1.245846 2.334246 3.900625 3.938313 3.230420 2.255470 3.663460 18.976113 -12.316336 2.703510 -24.520437 -2.676697 10.037573 -1.996594 -5.417568 8.191010 -2.284319 -5.363601 2.567156 0.266960 -1.866640 1.337150 -5.859366 1.286700 -8.357020 13.729452 -1.332109 28.098977 -2.593783 4.069873 23.969557 -11.664232 1.216117 -26.174386 -1.061056 10.705268 57.171686 -7.250620 24.096370 -30.082660 -2.832423 -52.306027 14.535895 38.595198 -10.187819 -20.029186 105.852983 32.777986 25.085242 -3.192290 4.562445 0.827870 -0.659330 1.638940 0.476310 24.755844 43.665077 21.831065 50.820272 -0.759645 -11.143202 -8.755859 20.608862 -3.990120 2.809164 -3.362402 1.725860 -1.828460 -2.955100 -0.444880 
-0.432670 17.157110 -2.197320 1.407065 -4.458177 -21.003483 -14.010410 11.878370 3.363304 11.238425 -0.369620 13.981015 -8.818252 4.574591 -2.744697 2.204569 3.950166 3.917894 3.297720 2.321190 3.725190 19.275583 -12.278716 2.649569 -24.775690 -2.953677 11.564221 -1.459921 -5.668039 7.329725 -2.365347 -5.666671 2.469853 0.358680 -1.849930 1.333640 -6.569771 1.786310 -8.183150 14.934322 -3.491557 23.823950 -5.372793 2.123681 27.738989 -11.768079 2.348713 -23.575808 1.317267 10.506530 56.006440 -9.041940 25.258340 -34.005910 -3.288881 -52.180810 13.748362 35.645775 -10.189295 -20.587938 103.621701 25.096752 16.567128 -3.258437 4.477764 0.843600 -0.630150 1.618850 0.470060 24.338472 42.098809 20.263808 48.972735 3.600144 -9.170767 -7.197891 18.402350 -3.373995 2.809169 -3.328013 1.685110 -1.781740 -2.950780 -0.487190 
-0.444110 17.169550 -2.117600 1.328718 0.298008 -20.066565 -14.021536 11.560223 2.971106 11.395608 -0.342493 13.223481 -9.228576 4.602275 -2.389324 2.012002 4.026969 3.866393 3.456130 2.491560 3.823940 19.499512 -11.830492 2.554045 -25.144180 -3.132251 15.005715 0.008335 -5.954224 5.126693 -2.493628 -6.180827 2.282314 0.540820 -1.839890 1.364580 -6.971626 1.316064 -7.683275 14.803702 -3.852986 16.999491 -6.594934 1.241054 34.111835 -12.205936 4.494976 -20.029016 4.132132 8.881361 51.307876 -9.157280 23.930460 -35.968220 -2.719056 -51.558621 12.092592 30.649343 -11.688002 -22.342915 96.572588 11.152566 0.990724 -3.338954 4.365638 0.804880 -0.574890 1.597070 0.483140 23.265149 39.267026 18.194385 49.474439 6.398793 -9.422296 -6.802468 19.473647 -3.857823 2.731400 -3.402849 1.686460 -1.753300 -2.973550 -0.511220 
-0.440060 17.159640 -2.112780 1.504943 2.691985 -18.271561 -13.962420 11.210247 2.355410 10.689072 -0.321430 10.803131 -8.373407 4.800711 1.689572 1.776015 3.735837 3.927351 3.687660 2.765010 3.886920 19.710375 -12.007142 2.447343 -25.160208 -3.085122 14.223371 0.240442 -5.854631 5.178273 -2.499963 -6.412373 2.168126 0.814480 -1.813890 1.425790 -7.389006 2.094776 -6.994006 18.854918 -2.811988 11.481939 -10.626225 2.493521 36.396349 -13.406871 5.637057 -16.985775 4.533660 6.144276 45.654276 -4.321060 19.712120 -30.560910 -0.147749 -46.024319 10.058933 23.648592 -11.273795 -23.207745 84.220906 -13.635147 -16.906813 -3.118968 4.174449 0.674910 -0.486580 1.586400 0.590620 22.630702 32.570375 13.960490 54.452691 7.740556 -10.393329 -7.364380 21.451564 -4.946431 2.665269 -3.570696 1.739100 -1.764800 -3.086520 -0.449800 
-0.432210 17.160690 -2.162960 2.680612 -0.598692 -16.156707 -13.881977 11.067792 2.420280 9.274845 -0.379582 8.861164 -9.116344 4.655668 1.957827 1.913638 3.248784 4.023305 3.820180 2.986890 3.885970 19.707130 -12.475844 2.401605 -25.899025 -2.569387 8.374350 -0.229188 -5.471017 7.730770 -2.330668 -5.982762 2.249895 0.903150 -1.919930 1.409020 -7.465616 3.124780 -7.144156 21.685133 -1.745855 10.836889 -14.438509 5.784818 32.982090 -14.520335 4.972946 -17.498609 3.327087 4.981229 45.361936 0.196670 17.654490 -25.357260 0.569102 -41.084089 10.376381 18.724129 -7.221631 -20.540859 82.176528 -30.046761 -27.064953 -2.720056 4.257845 0.518430 -0.534030 1.621360 0.660580 24.641274 29.735060 12.297933 56.819134 6.245096 -10.511099 -7.404807 21.893289 -5.303525 2.772334 -3.705987 1.893940 -1.906790 -3.237370 -0.336600 
-0.406920 17.142580 -2.169690 2.317186 -1.610943 -14.083103 -13.929601 11.369797 2.265557 9.501900 -0.532849 6.309966 -8.578925 5.075977 5.964380 1.890755 3.066716 4.081019 3.820500 3.020060 3.795600 19.585855 -12.658855 2.388365 -25.145780 -2.358216 5.110010 -0.060125 -5.256147 9.131898 -2.191846 -5.670570 2.354178 0.924970 -1.866640 1.400390 -7.198081 3.138205 -7.039212 24.272766 -1.872630 9.710626 -18.312673 6.904266 28.986805 -14.887618 4.100011 -17.822877 1.488591 5.426610 44.388922 4.243820 16.212040 -21.599040 1.056814 -36.768337 10.799194 14.578021 -6.596303 -17.644479 86.075468 -36.678443 -34.498065 -2.486554 4.190510 0.453230 -0.509320 1.583040 0.720520 25.261425 26.387578 10.477594 59.661223 4.866807 -10.965152 -6.305091 23.036631 -5.400940 2.791324 -3.711834 1.912650 -1.921550 -3.257180 -0.273520 
